<svg id="Capa_1" data-name="Capa 1" xmlns="http://www.w3.org/2000/svg" viewBox="0 0 74.5 64.38"><defs><style>.cls-1,.cls-3{fill:none;stroke-miterlimit:10;}.cls-1{stroke:#8b47ff;stroke-width:0.5px;}.cls-2{fill:#8b47ff;fill-rule:evenodd;}.cls-3{stroke:#ff2f72;stroke-width:0.25px;}</style></defs><g id="Capa_2" data-name="Capa 2"><path class="cls-1" d="M37.29,6.58h-.1c-6.62,0-11,2.46-14.59,0C36.32,16.11,36.11,20,36.12,29.16a30.89,30.89,0,0,1-5.32-6.73c1,3.49.42,5.48,1.66,6.36-11.23-8-18.27-11.21-29-20.76,8,9.52,14.05,16.24,23.78,24.15-1.58,1-3.69-1.5-5.76-2.7,4.35,6.39,9.19,11.65,15.67,14.64h0c6.48-3,11.37-8.41,15.72-14.8-2.07,1.2-4.62,2.19-6.17,3.19C57.9,25.38,63.15,17.3,71.17,7.78c-10.69,9.54-17.65,12.3-29.17,21,1.21-.92.69-2.87,1.66-6.36a30.89,30.89,0,0,1-5.32,6.73c0-9.15.83-14.06,13.66-22.58-3.6,2.39-8.93,0-14.71,0Z" transform="translate(-0.05)"/><path class="cls-2" d="M37.2,48.56h0a17.57,17.57,0,0,0,5.11,6.21L37.2,64.38h0l-5-9.47C34.26,53.46,35.62,51.45,37.2,48.56Z" transform="translate(-0.05)"/><path class="cls-2" d="M19.89,58.73A18.89,18.89,0,0,0,37,47.94c-1.89-1-3.71-2-5.49-3.12A12.34,12.34,0,0,1,10.4,32a12,12,0,0,1,1.94-2.43c-1.33-1.45-2.67-3-4-4.6A18.88,18.88,0,0,0,19.92,58.73Z" transform="translate(-0.05)"/><path class="cls-2" d="M27.27,42.16a7.89,7.89,0,1,1-13.88-7.5,7.72,7.72,0,0,1,1.79-2.23A85.71,85.71,0,0,0,27.27,42.16Z" transform="translate(-0.05)"/><path class="cls-2" d="M54.66,58.73A18.89,18.89,0,0,1,37.6,47.94c1.88-1,3.71-2,5.48-3.12A12.34,12.34,0,0,0,64.15,32a12,12,0,0,0-1.94-2.43c1.36-1.45,2.71-3,4-4.6A18.88,18.88,0,0,1,54.63,58.73Z" transform="translate(-0.05)"/><path class="cls-2" d="M74.55,10.45c-8.43,17.07-21.37,28.79-37.24,37h0c-15.87-8.24-28.81-20-37.24-37A5.67,5.67,0,0,0,2.71,12.3C1.05,10.44.35,7.38.05,5.45c1.11.72,3,2.22,3.88,2.18C1.36,4,1.21,4.3.05,0,6.74,8.47,13.31,10,22.58,13.27a50,50,0,0,1,7.31-2c6.69,5.58,6.38,12,6.39,18.34a27,27,0,0,1-4.78-5.87c.87,3,.65,4.51,1.49,5.55A176.17,176.17,0,0,1,4,8.51c7.2,8.31,15.31,17.13,24,24-1.42.83-3.64-1-5.5-2A35.29,35.29,0,0,0,37.16,42.67h0A35.21,35.21,0,0,0,52,30.56c-1.86,1-4.08,2.86-5.5,2,8.73-6.91,16.84-15.73,24-24a175.16,175.16,0,0,1-29,20.78c.84-1,.62-2.5,1.49-5.55a27,27,0,0,1-4.77,5.87c0-6.36-.31-12.77,6.4-18.35a50.66,50.66,0,0,1,7.36,2C61.2,10,67.58,8.51,74.27,0c-1.16,4.3-1.12,4-3.69,7.63.87,0,2.77-1.46,3.88-2.18-.33,1.92-1,5-2.62,6.85A5.68,5.68,0,0,0,74.55,10.45Z" transform="translate(-0.05)"/><path class="cls-3" d="M60.33,32.51a8.24,8.24,0,1,1-12,9.84" transform="translate(-0.05)"/><path class="cls-3" d="M60.17,32.67a8,8,0,1,1-11.68,9.58" transform="translate(-0.05)"/><path class="cls-3" d="M54,38.17h0v.07h0v0a2.59,2.59,0,0,0-.07,2.24h0a2,2,0,0,0,.1.21h0c0,.07.09.15.15.22a2.55,2.55,0,0,0,1.91,1.24h.08a2.57,2.57,0,0,0,2.08-1.1h0l.12-.19h0l.09-.18h0a2.54,2.54,0,0,0,.24-1.08,2.59,2.59,0,0,0-.33-1.27h0a2.61,2.61,0,0,0-2.17-1.24h-.11a2.66,2.66,0,0,0-.88.18" transform="translate(-0.05)"/><path class="cls-3" d="M55.47,36.94h0A2.78,2.78,0,0,0,56,37h.11a2.62,2.62,0,0,0,2.14-1.21h0v0h0a2.61,2.61,0,0,0,.29-1.19v-.31" transform="translate(-0.05)"/><path class="cls-3" d="M58.72,44.8A2.56,2.56,0,0,1,58.45,46h0l-.06.11h0a.64.64,0,0,1-.08.14h0a2.63,2.63,0,0,1-2.15,1.18h-.11a2.61,2.61,0,0,1-2-1l-.14-.22h0l-.11-.22h0A2.58,2.58,0,0,1,54,43.57h0a2.6,2.6,0,0,1,4.46,0h0A2.53,2.53,0,0,1,58.72,44.8Z" transform="translate(-0.05)"/><path class="cls-3" d="M53.77,38.38h.52a2.63,2.63,0,0,0,1.63-1h0v-.05a.44.44,0,0,0,.12-.18.09.09,0,0,0,0-.07h0a2.44,2.44,0,0,0,.14-.28h0a2.82,2.82,0,0,0,.15-.57" transform="translate(-0.05)"/><path class="cls-3" d="M59.42,33.38h.24a.16.16,0,0,1,.08.06h0l.14.12h0l.06.06h0v.05h0v.06h0v.08h0a2.6,2.6,0,0,1,.33,1.28A2.64,2.64,0,0,1,60,36.32h0a2.63,2.63,0,0,1-1.83,1.29h-.8a2.58,2.58,0,0,1-1.56-.85,3.27,3.27,0,0,1-.28-.37h0a1.65,1.65,0,0,1-.18-.41h0" transform="translate(-0.05)"/><path class="cls-3" d="M56.49,43.46a2.56,2.56,0,0,1-.35,1.3h0A2.59,2.59,0,0,1,53.92,46h0a2.58,2.58,0,0,1-2.22-1.28h0a2.46,2.46,0,0,1-.35-1.3,2.59,2.59,0,0,1,2.58-2.59h0A2.59,2.59,0,0,1,56.49,43.46Z" transform="translate(-0.05)"/><circle class="cls-3" cx="58.3" cy="43.46" r="2.6"/><path class="cls-3" d="M58.35,35.71h0a2.65,2.65,0,0,1,0,2.39h0a2.61,2.61,0,0,1-2.12,1.17h-.18a2.58,2.58,0,0,1-2-1h0L53.88,38h0" transform="translate(-0.05)"/><path class="cls-3" d="M57.71,35a2.4,2.4,0,0,1,.62.69h0" transform="translate(-0.05)"/><circle class="cls-3" cx="56.07" cy="42.21" r="2.6"/><circle class="cls-3" cx="58.3" cy="40.87" r="2.6"/><path class="cls-3" d="M53.84,38.27h.06a2.54,2.54,0,0,1,.39,0h0a2.63,2.63,0,0,1,1.66,1,1.88,1.88,0,0,1,.16.23h0a1,1,0,0,1,.12.23,2.57,2.57,0,0,1,0,2h0c0,.09-.09.18-.14.27h0l-.16.24a2.55,2.55,0,0,1-2.06,1h0A2.59,2.59,0,0,1,51.68,42h0a2.55,2.55,0,0,1-.35-1.29,2.74,2.74,0,0,1,.09-.7h0" transform="translate(-0.05)"/><path class="cls-3" d="M51.83,39.84a2.56,2.56,0,0,0,2,1H54a2.58,2.58,0,0,0,2-1h0a1.07,1.07,0,0,0,.15-.22h0c.06-.09.1-.2.15-.29h0a2.46,2.46,0,0,0,.21-1,2.52,2.52,0,0,0-.14-.82,3.49,3.49,0,0,0-.2-.44h0a2.62,2.62,0,0,0-.24-.34h0" transform="translate(-0.05)"/><circle class="cls-3" cx="58.3" cy="38.27" r="2.6"/><path class="cls-3" d="M63.2,39.59A2.68,2.68,0,0,1,63,40.7h0a1.62,1.62,0,0,1-.1.18h0a.86.86,0,0,1-.1.16h0a2.59,2.59,0,0,1-2.12,1.09h0a2.58,2.58,0,0,1-2.19-1.25h0v-.05h0a2.59,2.59,0,0,1-.33-1.27,2.66,2.66,0,0,1,.29-1.21h0a2.56,2.56,0,0,1,2.17-1.23h.06a2.58,2.58,0,0,1,2,1h0a2.2,2.2,0,0,1,.17.25h0l.12.24h0A2.57,2.57,0,0,1,63.2,39.59Z" transform="translate(-0.05)"/><path class="cls-3" d="M49.75,41.38a2.54,2.54,0,0,0,1.88.82h0a2.6,2.6,0,0,0,2.13-1.15h0l.06-.1h0v-.07h0a2.62,2.62,0,0,0,.08-2.14h0a2.3,2.3,0,0,0-.12-.25h0" transform="translate(-0.05)"/><path class="cls-3" d="M60.62,44.8H59.46l-.08.05h-.05a2.55,2.55,0,0,0-.47.4v.12l-.13.18h0l-.06.11h0a.57.57,0,0,1-.08.13h0v.06L58.5,46l-.1.12h0l-.06,0h-.13l-.07,0H57a2.44,2.44,0,0,1-.14-.28,2.69,2.69,0,0,1,.11-2.24h0a1.88,1.88,0,0,1,.16-.23,2.57,2.57,0,0,1,2.07-1h0a2.61,2.61,0,0,1,2.12,1.17h0l.08.13h0Z" transform="translate(-0.05)"/><path class="cls-3" d="M56.49,46.06a2.49,2.49,0,0,1-.21,1,2.44,2.44,0,0,1-.14.28H54.88l-.08-.06h0l-.06-.05h0l-.06-.07h0v0h0a2.61,2.61,0,0,1-2.19-1.28h0a.41.41,0,0,1,.07-.11,2.63,2.63,0,0,1,2.13-1.19h0a2.64,2.64,0,0,1,2.06,1l.16.24h0A2.56,2.56,0,0,1,57,46,2.32,2.32,0,0,1,56.49,46.06Z" transform="translate(-0.05)"/><path class="cls-3" d="M58.37,46.1a2.62,2.62,0,0,1-2.21,1.3h-1.3l-.08-.06h-.12l-.1-.11-.06-.07h0v0h0v-.06h0l.07-.1a2.58,2.58,0,0,1,2.16-1.16h.05A2.59,2.59,0,0,1,58.37,46.1Z" transform="translate(-0.05)"/><path class="cls-3" d="M62.87,43.53h0c0-.07-.09-.14-.15-.21h0a2.6,2.6,0,0,0-2.07-1.06h0a2.6,2.6,0,0,0-2.2,1.12h0a.36.36,0,0,0-.07.1h0a.8.8,0,0,0-.08.16h0a2.58,2.58,0,0,0,0,2.3h0v.11h0l.06-.11h0l.13-.18v-.12a2.55,2.55,0,0,1,.47-.4h0l.08-.05h1.56a2.59,2.59,0,0,0,2.12-1.1h0l.07-.09v-.06h0" transform="translate(-0.05)"/><path class="cls-3" d="M52.11,39.63a2.59,2.59,0,0,1,1.63,1h0a2.39,2.39,0,0,1,.13.21h0a2,2,0,0,1,.13.25h0a2.69,2.69,0,0,1,.22,1,2.6,2.6,0,0,1-.28,1.19h0a.41.41,0,0,1,0,.09h0l-.07.11h0a2.57,2.57,0,0,1-2.14,1.15h0a2.62,2.62,0,0,1-2.21-1.25h0a1.09,1.09,0,0,1-.08-.15,1,1,0,0,1-.07-.15V43h0v-.06h0a2.59,2.59,0,0,1-.09-.68v-.34" transform="translate(-0.05)"/><path class="cls-3" d="M52.26,39.51h0a2.58,2.58,0,0,0,1.54-1.08h0v-.07h0" transform="translate(-0.05)"/><path class="cls-3" d="M63.2,42.18A2.69,2.69,0,0,1,63,43.3h0l-.1.19h0v.06l-.07.09h0a2.59,2.59,0,0,1-2.12,1.1h0a2.61,2.61,0,0,1-2.21-1.27h0a2.65,2.65,0,0,1-.1-2.36h0l.12-.22h0a1.08,1.08,0,0,1,.11-.18h0a2.6,2.6,0,0,1,2.09-1.1h.06a2.58,2.58,0,0,1,2,1h0a2.33,2.33,0,0,1,.17.26h0l.12.25A2.58,2.58,0,0,1,63.2,42.18Z" transform="translate(-0.05)"/><path class="cls-3" d="M63.2,37A2.69,2.69,0,0,1,63,38.11h0a1.62,1.62,0,0,1-.1.18h0l-.1.15h0a2.6,2.6,0,0,1-2.09,1.1H60.6a2.61,2.61,0,0,1-2.22-1.16h0a2.59,2.59,0,0,1-.33-1.27,2.7,2.7,0,0,1,.29-1.21h0v-.06a2.6,2.6,0,0,1,2.2-1.46h.09a2.61,2.61,0,0,1,2.21,1.28h0v.06h0A2.59,2.59,0,0,1,63.2,37Z" transform="translate(-0.05)"/><path class="cls-3" d="M54.24,44.78A2.69,2.69,0,0,1,54,46l-.06.1h0a2.61,2.61,0,0,1-2.19-1.28h0a2.6,2.6,0,0,1-2.21-1.25h0l.07-.12a2.6,2.6,0,0,1,2.17-1.18h0a2.6,2.6,0,0,1,2.07,1.07c0,.07.1.14.14.21h0c0,.08.09.17.13.25A2.73,2.73,0,0,1,54.24,44.78Z" transform="translate(-0.05)"/><path class="cls-3" d="M58.39,46.06h0a2.62,2.62,0,0,1-2.21,1.3h-.13a.11.11,0,0,1,0-.08A2.59,2.59,0,0,1,58.28,46Z" transform="translate(-0.05)"/><path class="cls-3" d="M56.16,47.38H54.84l-.08-.06H54.7l-.1-.11-.06-.07h0v0h0a.09.09,0,0,0,0-.07h0a2.59,2.59,0,0,1,2.22,1.26h0Z" transform="translate(-0.05)"/><path class="cls-3" d="M58.36,46.1a.6.6,0,0,1,.09-.15l-.06.11h0a.64.64,0,0,1-.08.14A.47.47,0,0,1,58.36,46.1Z" transform="translate(-0.05)"/><path class="cls-3" d="M53.74,45.84l.14.22a2.58,2.58,0,0,1-2.22-1.28A2.59,2.59,0,0,1,53.74,45.84Z" transform="translate(-0.05)"/><path class="cls-3" d="M54.05,46.38h0v-.06h0Z" transform="translate(-0.05)"/><path class="cls-3" d="M62.85,43.49h0v.06l-.07.09h0a2.59,2.59,0,0,1-2.12,1.1h0l-.08-.14h0a2.68,2.68,0,0,1-.26-1.14,2.61,2.61,0,0,1,.34-1.28h0a2.6,2.6,0,0,1,1.93-1.27h.28" transform="translate(-0.05)"/><path class="cls-3" d="M62.88,40.93h-.35a2.62,2.62,0,0,1-1.8-1.07h0a1.37,1.37,0,0,1-.13-.2h0a1.63,1.63,0,0,1-.11-.23h0a2.67,2.67,0,0,1-.21-1,2.56,2.56,0,0,1,.35-1.3h0a2.58,2.58,0,0,1,2.17-1.25h.08" transform="translate(-0.05)"/><path class="cls-3" d="M62.87,43.53h-.33a2.64,2.64,0,0,1-1.81-1.07h0a1.76,1.76,0,0,1-.14-.23h0L60.48,42h0a2.89,2.89,0,0,1-.21-1,2.55,2.55,0,0,1,.35-1.29h0a2.59,2.59,0,0,1,2.18-1.34h.08" transform="translate(-0.05)"/><path class="cls-3" d="M62.88,40.93h-.35a2.62,2.62,0,0,1-1.8-1.07h0a1.37,1.37,0,0,1-.13-.2h0a1.63,1.63,0,0,1-.11-.23h0a2.67,2.67,0,0,1-.21-1,2.56,2.56,0,0,1,.35-1.3h0a2.58,2.58,0,0,1,2.17-1.25h.08" transform="translate(-0.05)"/><path class="cls-3" d="M62.88,38.38H62.8a2.62,2.62,0,0,1-2.07-1.09h0a2.39,2.39,0,0,1-.13-.21h0l-.11-.22h0a2.67,2.67,0,0,1-.21-1,2.59,2.59,0,0,1,.33-1.27h0a2.61,2.61,0,0,1,2.21,1.28h0v.06h0" transform="translate(-0.05)"/><path class="cls-3" d="M59.42,33.38h.24a.16.16,0,0,1,.08.06h0l.14.12h0l.06.06h0v.05h0v.06h0v.08h0a2.62,2.62,0,0,1-1.83,1.26h-.75a2.44,2.44,0,0,1-.75-.24" transform="translate(-0.05)"/><path class="cls-3" d="M63,38.11h0l-.11.16h0l-.08.15h0a2.69,2.69,0,0,0-.25,1.12,2.66,2.66,0,0,0,.2,1h0c0,.1.09.19.14.29h0a2.2,2.2,0,0,0,.17.25" transform="translate(-0.05)"/><path class="cls-3" d="M62.83,43.53h0l-.12-.23h0a2.58,2.58,0,0,1-.22-1.06,2.68,2.68,0,0,1,.25-1.11h0l.08-.16h0l.11-.17h0" transform="translate(-0.05)"/><path class="cls-3" d="M62.84,43.47A1,1,0,0,1,63,43.3l-.1.19h0v.06l-.07.09a1.09,1.09,0,0,0,.08-.15h0Z" transform="translate(-0.05)"/><path class="cls-3" d="M63.05,38.58h0l-.17-.24h0a1.59,1.59,0,0,1-.15-.29h0a2.66,2.66,0,0,1-.2-1,2.54,2.54,0,0,1,.29-1.18h0v-.08h0a.09.09,0,0,0,0-.07h0v.06h0" transform="translate(-0.05)"/><path class="cls-3" d="M62.85,43.49h0v.06l-.07.09h0a2.59,2.59,0,0,1-2.12,1.1,2.57,2.57,0,0,1,1.94-1.27h.27Z" transform="translate(-0.05)"/><path class="cls-3" d="M59.42,33.38h0l.17.09h.06a.91.91,0,0,1,.16.11h0l.09.08h0l.06.06h0v.05h0v.06h0v.08h.1a2.61,2.61,0,0,1,2.21,1.28h0v.06h0a.22.22,0,0,1-.05.08h0a2.55,2.55,0,0,1-2.12,1.16H60a2.6,2.6,0,0,1-2.18-1.22h0a2.73,2.73,0,0,1-.32-1" transform="translate(-0.05)"/><path class="cls-3" d="M62.85,35.68v.06h-.08a2.59,2.59,0,0,1-2.2-1.3h.06a2.61,2.61,0,0,1,2.21,1.28Z" transform="translate(-0.05)"/><path class="cls-3" d="M59,33.82a2.53,2.53,0,0,0,1.56.57h0v-.08h0v-.06h0v0h0l-.06-.06h0l-.09-.08h0a.91.91,0,0,0-.16-.11h-.06L60,33.86h0" transform="translate(-0.05)"/><path class="cls-3" d="M49.05,41.84v.34a2.59,2.59,0,0,0,.09.68h0v.06h0V43a1,1,0,0,0,.07.15,1.09,1.09,0,0,0,.08.15h0" transform="translate(-0.05)"/><path class="cls-3" d="M49.39,43.53h.32a2.6,2.6,0,0,0,1.72-1h0c0-.07.1-.15.15-.25h0c0-.07.07-.14.1-.2h0a2.46,2.46,0,0,0,.21-1,2.54,2.54,0,0,0-.22-1" transform="translate(-0.05)"/><path class="cls-3" d="M49.05,41.85a1.82,1.82,0,0,0,0,.33,2.6,2.6,0,0,0,.1.68h0v.06h0V43a1,1,0,0,0,.07.15,1.09,1.09,0,0,0,.08.15h0" transform="translate(-0.05)"/><path class="cls-3" d="M49.05,41.84v.34a2.59,2.59,0,0,0,.09.68h0v.06h0V43a1,1,0,0,0,.07.15,1.09,1.09,0,0,0,.08.15h0" transform="translate(-0.05)"/><path class="cls-3" d="M49.38,43.53h0a2.62,2.62,0,0,0,2.21,1.25h0l.07-.12a2.64,2.64,0,0,0-.06-2.44h0a2.62,2.62,0,0,0-1.41-1.15" transform="translate(-0.05)"/><path class="cls-3" d="M49.38,43.53h0a2.6,2.6,0,0,0,2.21,1.25h0a2.6,2.6,0,0,0-1.89-1.27h-.34" transform="translate(-0.05)"/><path class="cls-3" d="M49.38,43.53h0" transform="translate(-0.05)"/><path class="cls-3" d="M49.05,41.84v.34a2.59,2.59,0,0,0,.09.68h0v.06h0V43a1,1,0,0,0,.07.15,1.09,1.09,0,0,0,.08.15h0" transform="translate(-0.05)"/><path class="cls-3" d="M49.38,43.53h0l.06-.12h0a2.56,2.56,0,0,0,.26-1.12,2.59,2.59,0,0,0-.12-.78" transform="translate(-0.05)"/></g></svg>