<svg width="1921" height="1081" viewBox="0 0 1921 1081" fill="none" xmlns="http://www.w3.org/2000/svg">
<path d="M-32.3409 313.98C0.288274 339.473 47.4053 333.688 72.898 301.059C98.3907 268.429 92.6055 221.312 59.9763 195.82C27.3472 170.327 -19.7699 176.112 -45.2626 208.741C-70.7553 241.37 -64.97 288.488 -32.3409 313.98Z" fill="url(#paint0_linear_71_347)"/>
<path d="M1706.18 134.314C1775.36 188.365 1875.26 176.099 1929.31 106.916C1983.37 37.7337 1971.1 -62.1672 1901.92 -116.219C1832.73 -170.27 1732.83 -158.004 1678.78 -88.821C1624.73 -19.6384 1637 80.2624 1706.18 134.314Z" stroke="#410095" stroke-width="7"/>
<path d="M1771.59 139.224C1755.25 216.115 1804.33 291.697 1881.22 308.041C1958.12 324.385 2033.7 275.301 2050.04 198.41C2066.38 121.519 2017.3 45.9367 1940.41 29.593C1863.52 13.2492 1787.94 62.3327 1771.59 139.224Z" fill="url(#paint1_linear_71_347)"/>
<path d="M1843.88 1158.37C1887.83 1192.71 1951.31 1184.92 1985.65 1140.96C2019.99 1097.01 2012.2 1033.53 1968.24 999.19C1924.29 964.848 1860.81 972.641 1826.47 1016.6C1792.13 1060.55 1799.92 1124.03 1843.88 1158.37Z" stroke="#410095" stroke-width="5"/>
<path d="M-49.8218 950.264C-8.91243 982.226 50.1614 974.972 82.1234 934.063C114.085 893.154 106.832 834.08 65.9225 802.118C25.0131 770.156 -34.0607 777.409 -66.0227 818.319C-97.9846 859.228 -90.7312 918.302 -49.8218 950.264Z" stroke="#410095" stroke-width="3"/>
<path d="M-49.5566 989.99C-13.2168 1018.38 39.2584 1011.94 67.6501 975.598C96.0418 939.259 89.5986 886.783 53.2589 858.392C16.9192 830 -35.556 836.443 -63.9477 872.783C-92.3394 909.123 -85.8963 961.598 -49.5566 989.99Z" fill="url(#paint2_linear_71_347)"/>
<path d="M95.8085 203.47C110.864 215.233 132.606 212.564 144.369 197.508C156.132 182.452 153.462 160.711 138.406 148.948C123.35 137.185 101.609 139.854 89.8461 154.91C78.0831 169.966 80.7525 191.707 95.8085 203.47Z" stroke="#410095" stroke-width="5"/>
<defs>
<linearGradient id="paint0_linear_71_347" x1="59.9763" y1="195.82" x2="-32.3409" y2="313.98" gradientUnits="userSpaceOnUse">
<stop stop-color="#620DD1"/>
<stop offset="1" stop-color="#310769"/>
</linearGradient>
<linearGradient id="paint1_linear_71_347" x1="2050.04" y1="198.41" x2="1771.59" y2="139.224" gradientUnits="userSpaceOnUse">
<stop stop-color="#620DD1"/>
<stop offset="1" stop-color="#310769"/>
</linearGradient>
<linearGradient id="paint2_linear_71_347" x1="53.2589" y1="858.392" x2="-49.5566" y2="989.99" gradientUnits="userSpaceOnUse">
<stop stop-color="#620DD1"/>
<stop offset="1" stop-color="#310769"/>
</linearGradient>
</defs>
</svg>
