<svg xmlns="http://www.w3.org/2000/svg" xmlns:xlink="http://www.w3.org/1999/xlink" viewBox="0 0 74.55 64.33"><defs><style>.cls-1,.cls-7{fill:none;stroke:#05007f;stroke-miterlimit:10;}.cls-1{stroke-width:0.5px;}.cls-1,.cls-2,.cls-3,.cls-4,.cls-5,.cls-6{fill-rule:evenodd;}.cls-2{fill:url(#Degradado_sin_nombre_75);}.cls-3{fill:url(#Degradado_sin_nombre_75-2);}.cls-4{fill:url(#Degradado_sin_nombre_75-3);}.cls-5{fill:url(#Degradado_sin_nombre_75-4);}.cls-6{fill:url(#Degradado_sin_nombre_75-5);}.cls-7{stroke-width:0.25px;}</style><linearGradient id="Degradado_sin_nombre_75" x1="58.17" y1="145.06" x2="68.26" y2="145.06" gradientUnits="userSpaceOnUse"><stop offset="0" stop-color="#00036a"/><stop offset="0.41" stop-color="#350098"/><stop offset="0.53" stop-color="#380098"/><stop offset="0.64" stop-color="#430098"/><stop offset="0.74" stop-color="#540097"/><stop offset="0.83" stop-color="#6d0096"/><stop offset="0.93" stop-color="#8c0095"/><stop offset="1" stop-color="#ac0094"/><stop offset="1" stop-color="#a81093"/><stop offset="1" stop-color="#94698e"/><stop offset="1" stop-color="#8c8c8c"/></linearGradient><linearGradient id="Degradado_sin_nombre_75-2" x1="26.96" y1="130.45" x2="62.91" y2="130.45" xlink:href="#Degradado_sin_nombre_75"/><linearGradient id="Degradado_sin_nombre_75-3" x1="38.39" y1="127.98" x2="53.22" y2="127.98" xlink:href="#Degradado_sin_nombre_75"/><linearGradient id="Degradado_sin_nombre_75-4" x1="63.55" y1="130.45" x2="99.49" y2="130.45" xlink:href="#Degradado_sin_nombre_75"/><linearGradient id="Degradado_sin_nombre_75-5" x1="25.95" y1="112.37" x2="100.5" y2="112.37" xlink:href="#Degradado_sin_nombre_75"/></defs><g id="Capa_2" data-name="Capa 2"><path class="cls-1" d="M63.24,95.2h-.1c-6.62,0-11,2.46-14.59,0,13.72,9.53,13.51,13.43,13.52,22.58a31.17,31.17,0,0,1-5.32-6.73c1,3.49.42,5.48,1.66,6.36-11.23-8-18.27-11.21-29-20.76,8,9.52,14.05,16.24,23.78,24.15-1.58,1-3.69-1.5-5.76-2.7,4.35,6.39,9.19,11.65,15.67,14.64v0l0,0,0,0v0c6.48-3,11.37-8.41,15.72-14.8-2.07,1.2-4.62,2.19-6.17,3.19C83.85,114,89.1,105.92,97.12,96.4c-10.69,9.54-17.65,12.3-29.17,21,1.21-.92.69-2.87,1.66-6.36a31.17,31.17,0,0,1-5.32,6.73c0-9.15.83-14.06,13.66-22.58-3.6,2.39-8.93,0-14.71,0Z" transform="translate(-25.95 -88.62)"/><path class="cls-2" d="M63.15,137.18v0a17.64,17.64,0,0,0,5.11,6.21L63.15,153v0l-5-9.47C60.21,142.08,61.57,140.07,63.15,137.18Z" transform="translate(-25.95 -88.62)"/><path class="cls-3" d="M45.84,147.35a18.88,18.88,0,0,0,17.07-10.79c-1.89-1-3.71-2-5.49-3.12a12.34,12.34,0,1,1-19.13-15.28q-2-2.18-4-4.6a18.88,18.88,0,0,0,11.58,33.79Z" transform="translate(-25.95 -88.62)"/><path class="cls-4" d="M53.22,130.78a7.89,7.89,0,1,1-12.09-9.73A85.89,85.89,0,0,0,53.22,130.78Z" transform="translate(-25.95 -88.62)"/><path class="cls-5" d="M80.61,147.35a18.88,18.88,0,0,1-17.06-10.79c1.88-1,3.71-2,5.48-3.12a12.34,12.34,0,1,0,19.13-15.28c1.36-1.45,2.71-3,4-4.6a18.88,18.88,0,0,1-11.58,33.79Z" transform="translate(-25.95 -88.62)"/><path class="cls-6" d="M100.5,99.07c-8.43,17.07-21.37,28.79-37.24,37v0l0,0,0,0v0c-15.87-8.24-28.81-20-37.24-37a5.67,5.67,0,0,0,2.64,1.85C27,99.06,26.3,96,26,94.07c1.11.72,3,2.22,3.88,2.18-2.57-3.59-2.72-3.33-3.88-7.63,6.69,8.47,13.26,10,22.53,13.27a49.89,49.89,0,0,1,7.31-2c6.69,5.58,6.38,12,6.39,18.34a27,27,0,0,1-4.78-5.87c.87,3,.65,4.51,1.49,5.55a175.74,175.74,0,0,1-29-20.78c7.2,8.31,15.31,17.13,24,24-1.42.83-3.64-1-5.5-2a35.25,35.25,0,0,0,14.67,12.16v0l0,0,0,0v0A35.19,35.19,0,0,0,77.9,119.18c-1.86,1-4.08,2.86-5.5,2,8.73-6.91,16.84-15.73,24-24a175.32,175.32,0,0,1-29,20.78c.84-1,.62-2.5,1.49-5.55a27,27,0,0,1-4.77,5.87c0-6.36-.31-12.77,6.4-18.35a49.64,49.64,0,0,1,7.36,2c9.27-3.3,15.65-4.8,22.34-13.27-1.16,4.3-1.12,4-3.69,7.63.87,0,2.77-1.46,3.88-2.18-.33,1.92-1,5-2.62,6.85A5.67,5.67,0,0,0,100.5,99.07Z" transform="translate(-25.95 -88.62)"/><path class="cls-7" d="M86.28,121.13a8.24,8.24,0,1,1-12,9.84" transform="translate(-25.95 -88.62)"/><path class="cls-7" d="M86.12,121.29a8,8,0,1,1-11.68,9.58" transform="translate(-25.95 -88.62)"/><path class="cls-7" d="M79.91,126.79h0l0,.07h0l0,0h0l0,0,0,.05a2.6,2.6,0,0,0-.07,2.24h0a2,2,0,0,0,.1.21h0l0,0h0c.05.07.09.15.15.22A2.57,2.57,0,0,0,82,130.82h.08a2.57,2.57,0,0,0,2.08-1.1h0l.12-.19,0,0h0l.09-.18h0a2.62,2.62,0,0,0,.24-1.08,2.58,2.58,0,0,0-.33-1.27h0l0,0h0v0l0,0a2.61,2.61,0,0,0-2.17-1.24H82a2.56,2.56,0,0,0-.88.18" transform="translate(-25.95 -88.62)"/><path class="cls-7" d="M81.42,125.56h0a2.62,2.62,0,0,0,.57.07h.11a2.62,2.62,0,0,0,2.14-1.21h0v0h0s0,0,0,0h0s0,0,0,0h0v0h0l0-.05h0a2.58,2.58,0,0,0,.29-1.19c0-.1,0-.21,0-.31" transform="translate(-25.95 -88.62)"/><path class="cls-7" d="M84.67,133.42a2.6,2.6,0,0,1-.27,1.15h0l-.06.11s0,0,0,0h0a1,1,0,0,1-.08.14h0A2.63,2.63,0,0,1,82.11,136H82A2.61,2.61,0,0,1,80,135l-.14-.22h0s0,0,0,0l-.11-.22h0a2.57,2.57,0,0,1,.15-2.37h0a2.6,2.6,0,0,1,4.46,0v0A2.55,2.55,0,0,1,84.67,133.42Z" transform="translate(-25.95 -88.62)"/><path class="cls-7" d="M79.72,127h.15a2.33,2.33,0,0,0,.37,0h0a2.63,2.63,0,0,0,1.63-1h0s0,0,0-.05a.44.44,0,0,0,.12-.18.12.12,0,0,0,0-.07s0,0,0,0a2.44,2.44,0,0,0,.14-.28h0a2.65,2.65,0,0,0,.15-.57" transform="translate(-25.95 -88.62)"/><path class="cls-7" d="M85.37,122h0l.09,0h0l.08,0,0,0,0,0h0s0,0,0,0l.07,0a.21.21,0,0,1,.08.06h0v0h0l0,0h0l.14.12,0,0h0l.06.06,0,0,0,.05h0l0,0h0l0,0,0,0,0,.06,0,0a.56.56,0,0,1,0,.08l0,0v0h0a.08.08,0,0,1,0,0s0,0,0,0h0a2.62,2.62,0,0,1,.33,1.28,2.58,2.58,0,0,1-.31,1.23h0s0,0,0,0h0a2.61,2.61,0,0,1-1.83,1.29h0a1.87,1.87,0,0,1-.35,0h-.07a2.45,2.45,0,0,1-.38,0h0a2.57,2.57,0,0,1-1.56-.85,3.27,3.27,0,0,1-.28-.37.05.05,0,0,0,0,0h0s0,0,0,0h0a1.7,1.7,0,0,1-.18-.41h0" transform="translate(-25.95 -88.62)"/><path class="cls-7" d="M82.44,132.08a2.58,2.58,0,0,1-.35,1.3l0,0a2.6,2.6,0,0,1-2.22,1.26h0a2.58,2.58,0,0,1-2.22-1.28v0a2.48,2.48,0,0,1-.35-1.3,2.59,2.59,0,0,1,2.58-2.59h0A2.59,2.59,0,0,1,82.44,132.08Z" transform="translate(-25.95 -88.62)"/><circle class="cls-7" cx="58.35" cy="43.46" r="2.6"/><path class="cls-7" d="M84.3,124.33h0v0l0,0a2.65,2.65,0,0,1,0,2.39h0l0,0,0,0h0v0h0s0,0,0,0h0a0,0,0,0,0,0,0,0,0,0,0,0,0,0h0s0,0,0,0a2.62,2.62,0,0,1-2.12,1.17H82a2.59,2.59,0,0,1-2-1s0,0,0,0l-.17-.25h0a.05.05,0,0,1,0,0h0" transform="translate(-25.95 -88.62)"/><path class="cls-7" d="M83.66,123.6a2.54,2.54,0,0,1,.62.69h0s0,0,0,0h0" transform="translate(-25.95 -88.62)"/><circle class="cls-7" cx="56.12" cy="42.21" r="2.6"/><circle class="cls-7" cx="58.35" cy="40.87" r="2.6"/><path class="cls-7" d="M79.79,126.89h.06a2.47,2.47,0,0,1,.39,0h0a2.6,2.6,0,0,1,1.66,1,1.88,1.88,0,0,1,.16.23s0,0,0,0h0l0,0h0a1.67,1.67,0,0,1,.12.23,2.61,2.61,0,0,1,0,2h0a2.29,2.29,0,0,1-.14.27l0,0h0a2,2,0,0,1-.16.24,2.58,2.58,0,0,1-2.06,1h0a2.6,2.6,0,0,1-2.19-1.26v0h0s0,0,0,0a2.57,2.57,0,0,1-.35-1.29,2.63,2.63,0,0,1,.09-.7h0" transform="translate(-25.95 -88.62)"/><path class="cls-7" d="M77.78,128.46a2.54,2.54,0,0,0,2,1h.17a2.6,2.6,0,0,0,2-1h0v0a1.7,1.7,0,0,0,.15-.22h0l0,0h0c.06-.09.1-.2.15-.29h0a2.42,2.42,0,0,0,.21-1,2.48,2.48,0,0,0-.14-.82,3.49,3.49,0,0,0-.2-.44h0l0,0a.08.08,0,0,0,0,0h0a4.15,4.15,0,0,0-.24-.34h0" transform="translate(-25.95 -88.62)"/><circle class="cls-7" cx="58.35" cy="38.27" r="2.6"/><path class="cls-7" d="M89.15,128.21a2.58,2.58,0,0,1-.25,1.11h0a1,1,0,0,1-.1.18h0l0,0h0a1.4,1.4,0,0,1-.1.16h0a2.59,2.59,0,0,1-2.12,1.09h0a2.59,2.59,0,0,1-2.19-1.25h0v-.05h0a2.61,2.61,0,0,1-.33-1.27,2.57,2.57,0,0,1,.29-1.21h0l0,0,0,0h0v0l0,0h0a2.58,2.58,0,0,1,2.17-1.23h.06a2.6,2.6,0,0,1,2,1h0a2.2,2.2,0,0,1,.17.25v0l0,0h0l.12.24h0A2.6,2.6,0,0,1,89.15,128.21Z" transform="translate(-25.95 -88.62)"/><path class="cls-7" d="M75.7,130a2.54,2.54,0,0,0,1.88.82h0a2.59,2.59,0,0,0,2.13-1.15h0l.06-.1h0l0,0h0l0-.07h0a2.55,2.55,0,0,0,.27-1.14,2.45,2.45,0,0,0-.19-1s0,0,0,0-.07-.17-.12-.25a.09.09,0,0,0,0,0h0s0,0,0,0h0v0" transform="translate(-25.95 -88.62)"/><path class="cls-7" d="M86.57,133.42H86l-.07,0h-.08l0,0h-.07l-.06,0,0,0h0l-.06,0-.11,0,0,0-.07,0,0,0,0,0-.07,0-.08.05-.05,0a2.55,2.55,0,0,0-.47.4l0,.06,0,.06-.13.18h0l-.06.11h0s0,0,0,0h0a.57.57,0,0,1-.08.13h0l0,.06-.09.12-.1.12,0,0,0,0,0,0,0,0v0l0,0h0l0,0-.06.05,0,0,0,0-.07,0-.06,0-.07.05-.07,0-.07,0-.07,0-.07,0-.07,0h0l0,0h-.07l0,0h-.77l0,0a2.44,2.44,0,0,1-.14-.28,2.58,2.58,0,0,1,0-2,2.56,2.56,0,0,1,.11-.24h0l0,0,0,0a1.88,1.88,0,0,1,.16-.23,2.57,2.57,0,0,1,2.07-1h0a2.61,2.61,0,0,1,2.12,1.17h0l.08.13v0Z" transform="translate(-25.95 -88.62)"/><path class="cls-7" d="M82.44,134.68a2.48,2.48,0,0,1-.21,1,2.44,2.44,0,0,1-.14.28l0,0h-.75l0,0h0l-.07,0h-.09l-.06,0h-.14l0,0h-.09l0,0h0l-.06,0-.08-.06h0l0,0,0,0,0,0,0,0-.06-.05,0,0,0,0,0,0h0l0,0,0,0,0,0,0,0,0,0-.06-.07,0,0,0,0,0-.05h0l0,0h0l0,0h0v0h0l0,0h0v0l0,0h0s0,0,0,0h0a2.6,2.6,0,0,1-2.19-1.28h0a.41.41,0,0,1,.07-.11,2.61,2.61,0,0,1,2.13-1.19h0a2.64,2.64,0,0,1,2.06,1l.16.24,0,0,0,0h0a2.56,2.56,0,0,1,.11.24A2.48,2.48,0,0,1,82.44,134.68Z" transform="translate(-25.95 -88.62)"/><path class="cls-7" d="M84.32,134.72a2.61,2.61,0,0,1-2.21,1.3h-.78l-.06,0h0l-.07,0h0l-.06,0h0l-.06,0H81l0,0h-.06l0,0-.07,0h0l-.06,0-.08-.06-.06,0,0,0,0,0,0,0,0,0-.06,0,0,0,0,0,0,0,0,0-.1-.11-.06-.07,0,0,0,0,0-.05h0l0,0,0,0h0l0-.06h0v0l0,0h0l0,0h0l.07-.1a2.58,2.58,0,0,1,2.16-1.16h.05A2.59,2.59,0,0,1,84.32,134.72Z" transform="translate(-25.95 -88.62)"/><path class="cls-7" d="M88.82,132.15l0,0v0c-.05-.07-.09-.14-.15-.21h0a2.59,2.59,0,0,0-2.07-1.06h0A2.59,2.59,0,0,0,84.4,132h0a.61.61,0,0,0-.07.1h0l0,0h0a.8.8,0,0,0-.08.16h0a2.58,2.58,0,0,0,0,2.3h0a.54.54,0,0,0,0,.11l0,0h0s0,0,0,0h0l.06-.11h0l.13-.18,0-.06,0-.06a2.55,2.55,0,0,1,.47-.4l.05,0,.08-.05.07,0,0,0,0,0,.07,0,0,0,.11,0,.06,0h0l0,0,.06,0h.07l0,0H86l.07,0h.53l0,0a2.57,2.57,0,0,0,2.12-1.1h0l.07-.09,0-.06h0" transform="translate(-25.95 -88.62)"/><path class="cls-7" d="M78.06,128.25a2.59,2.59,0,0,1,1.63,1h0a1.93,1.93,0,0,1,.13.21h0a2,2,0,0,1,.13.25h0a2.58,2.58,0,0,1,.22,1,2.64,2.64,0,0,1-.28,1.19h0a.41.41,0,0,1-.05.09s0,0,0,0,0,0,0,0h0l-.07.11h0a2.58,2.58,0,0,1-2.14,1.15h0a2.61,2.61,0,0,1-2.21-1.25l0,0h0a1.09,1.09,0,0,1-.08-.15,1,1,0,0,1-.07-.15.76.76,0,0,1,0-.11l0,0s0,0,0,0h0v-.06h0v0s0,0,0,0a2.48,2.48,0,0,1-.09-.68,2.44,2.44,0,0,1,0-.27.2.2,0,0,0,0-.07" transform="translate(-25.95 -88.62)"/><path class="cls-7" d="M78.21,128.13h0a2.56,2.56,0,0,0,1.54-1.08h0l0,0s0,0,0,0l0,0a.08.08,0,0,1,0,0h0a0,0,0,0,0,0,0h0l0-.07h0" transform="translate(-25.95 -88.62)"/><path class="cls-7" d="M89.15,130.8a2.63,2.63,0,0,1-.25,1.12h0l-.1.19,0,0h0l0,.06-.07.09h0a2.57,2.57,0,0,1-2.12,1.1h0a2.61,2.61,0,0,1-2.21-1.27h0v0h0a2.65,2.65,0,0,1-.1-2.36h0a2.39,2.39,0,0,1,.12-.22h0a.78.78,0,0,1,.11-.18h0a2.6,2.6,0,0,1,2.09-1.1h.06a2.56,2.56,0,0,1,2,1h0a2.33,2.33,0,0,1,.17.26h0l0,0,.12.25A2.55,2.55,0,0,1,89.15,130.8Z" transform="translate(-25.95 -88.62)"/><path class="cls-7" d="M89.15,125.61a2.63,2.63,0,0,1-.25,1.12h0a1.62,1.62,0,0,1-.1.18l0,0h0l-.1.15h0a2.58,2.58,0,0,1-2.09,1.1h-.06A2.62,2.62,0,0,1,84.33,127h0l0,0h0v0h0a2.58,2.58,0,0,1-.33-1.27,2.7,2.7,0,0,1,.29-1.21l0,0,0,0h0l0,0,0-.06A2.59,2.59,0,0,1,86.49,123h.09a2.6,2.6,0,0,1,2.21,1.28h0l0,.06h0A2.64,2.64,0,0,1,89.15,125.61Z" transform="translate(-25.95 -88.62)"/><path class="cls-7" d="M80.19,133.4a2.63,2.63,0,0,1-.28,1.18l-.06.1v0h0s0,0,0,0h0a2.6,2.6,0,0,1-2.19-1.28h0a2.59,2.59,0,0,1-2.21-1.25l0,0h0l.07-.12a2.61,2.61,0,0,1,2.17-1.18h0a2.6,2.6,0,0,1,2.07,1.07c0,.07.1.14.14.21h0c0,.08.09.17.13.25A2.63,2.63,0,0,1,80.19,133.4Z" transform="translate(-25.95 -88.62)"/><path class="cls-7" d="M84.34,134.68s0,0,0,0a2.61,2.61,0,0,1-2.21,1.3H82a.2.2,0,0,1,0-.08,2.58,2.58,0,0,1,2.23-1.26Z" transform="translate(-25.95 -88.62)"/><path class="cls-7" d="M82.11,136h-.44l-.07,0h-.26l-.07,0h0l-.07,0h0l-.07,0-.06,0h-.11l0,0h-.06l0,0h0l-.05,0h0l-.06,0-.08-.06-.06,0,0,0,0,0,0,0,0,0,0,0,0,0,0,0,0,0,0,0,0,0-.1-.11-.06-.07,0,0,0,0,0-.05h0l0,0,0,0h0a.16.16,0,0,0,0-.07h0v0l0,0h0s0,0,0,0h0a2.6,2.6,0,0,1,2.22,1.26l0,0Z" transform="translate(-25.95 -88.62)"/><path class="cls-7" d="M84.31,134.72a.6.6,0,0,1,.09-.15l-.06.11s0,0,0,0h0a1,1,0,0,1-.08.14A.71.71,0,0,1,84.31,134.72Z" transform="translate(-25.95 -88.62)"/><path class="cls-7" d="M79.69,134.46l.14.22a2.58,2.58,0,0,1-2.22-1.28,2.58,2.58,0,0,1,2.08,1.06Z" transform="translate(-25.95 -88.62)"/><path class="cls-7" d="M80,135h0l0,0,0,0h0l0-.06h0v0l0,0h0s0,0,0,0h0A2,2,0,0,1,80,135Z" transform="translate(-25.95 -88.62)"/><path class="cls-7" d="M88.8,132.11l0,0h0l0,.06-.07.09h0a2.57,2.57,0,0,1-2.12,1.1h0s-.05-.09-.08-.14h0a2.58,2.58,0,0,1-.26-1.14,2.55,2.55,0,0,1,.34-1.28h0v0h0a2.62,2.62,0,0,1,1.93-1.27h.28s0,0,0,0h0" transform="translate(-25.95 -88.62)"/><path class="cls-7" d="M88.83,129.55h-.08l-.27,0a2.61,2.61,0,0,1-1.8-1.07h0a1.37,1.37,0,0,1-.13-.2l0,0h0a2.4,2.4,0,0,1-.11-.23h0a2.66,2.66,0,0,1-.21-1,2.58,2.58,0,0,1,.35-1.3l0,0v0a2.58,2.58,0,0,1,2.17-1.25h.08" transform="translate(-25.95 -88.62)"/><path class="cls-7" d="M88.82,132.15h-.07l-.26,0h0a2.61,2.61,0,0,1-1.81-1.07h0a1.76,1.76,0,0,1-.14-.23h0l-.11-.22h0a2.71,2.71,0,0,1-.21-1,2.57,2.57,0,0,1,.35-1.29l0,0v0h0A2.56,2.56,0,0,1,88.75,127h.08" transform="translate(-25.95 -88.62)"/><path class="cls-7" d="M88.83,129.55h-.08l-.27,0a2.61,2.61,0,0,1-1.8-1.07h0a1.37,1.37,0,0,1-.13-.2l0,0h0a2.4,2.4,0,0,1-.11-.23h0a2.66,2.66,0,0,1-.21-1,2.58,2.58,0,0,1,.35-1.3l0,0v0a2.58,2.58,0,0,1,2.17-1.25h.08" transform="translate(-25.95 -88.62)"/><path class="cls-7" d="M88.83,127h-.08a2.62,2.62,0,0,1-2.07-1.09h0a2.39,2.39,0,0,1-.13-.21l0,0v0h0l-.11-.22h0a2.66,2.66,0,0,1-.21-1,2.61,2.61,0,0,1,.33-1.27h0l0,0,0,0a2.6,2.6,0,0,1,2.21,1.28h0l0,.06h0" transform="translate(-25.95 -88.62)"/><path class="cls-7" d="M85.37,122h0l.09,0h0l.08,0,0,0,0,0h0s0,0,0,0l.07,0a.21.21,0,0,1,.08.06h0v0h0l0,0h0l.14.12,0,0h0l.06.06,0,0,0,.05h0l0,0h0l0,0,0,0,0,.06,0,0a.56.56,0,0,1,0,.08l0,0v0h0s0,0,0,0a2.6,2.6,0,0,1-1.83,1.26h-.06a1.71,1.71,0,0,1-.31,0v0h0a2.45,2.45,0,0,1-.38,0h0a2.35,2.35,0,0,1-.75-.24" transform="translate(-25.95 -88.62)"/><path class="cls-7" d="M88.9,126.73h0l-.11.16,0,0,0,0h0l-.08.15h0a2.63,2.63,0,0,0-.25,1.12,2.59,2.59,0,0,0,.2,1h0c0,.1.09.19.14.29h0a2.2,2.2,0,0,0,.17.25" transform="translate(-25.95 -88.62)"/><path class="cls-7" d="M88.78,132.15h0v0h0l-.12-.23h0a2.64,2.64,0,0,1-.22-1.06,2.58,2.58,0,0,1,.25-1.11h0l.08-.16,0,0h0l0,0,.11-.17h0" transform="translate(-25.95 -88.62)"/><path class="cls-7" d="M88.79,132.09a1.63,1.63,0,0,1,.11-.17l-.1.19,0,0h0l0,.06-.07.09a1.09,1.09,0,0,0,.08-.15l0,0h0Z" transform="translate(-25.95 -88.62)"/><path class="cls-7" d="M89,127.2h0l-.17-.24h0v0a2.64,2.64,0,0,1-.15-.29h0a2.6,2.6,0,0,1-.2-1,2.48,2.48,0,0,1,.29-1.18h0l0-.08h0a.16.16,0,0,0,0-.07h0l0,.06h0" transform="translate(-25.95 -88.62)"/><path class="cls-7" d="M88.8,132.11l0,0h0l0,.06-.07.09h0a2.57,2.57,0,0,1-2.12,1.1,2.59,2.59,0,0,1,1.94-1.27h0l.27,0h0Z" transform="translate(-25.95 -88.62)"/><path class="cls-7" d="M85.37,122h0l.17.09,0,0,.06,0h0v0a.91.91,0,0,1,.16.11h0l0,0h0l0,0h0l0,0,.09.08,0,0h0l.06.06,0,0,0,.05h0l0,0h0l0,0,0,0,0,.06,0,0a.22.22,0,0,1,0,.08l0,0v0h.1a2.6,2.6,0,0,1,2.21,1.28h0l0,.06h0a.22.22,0,0,1-.05.08h0a2.56,2.56,0,0,1-2.12,1.16h-.06a2.59,2.59,0,0,1-2.18-1.22l0,0h0a2.79,2.79,0,0,1-.32-1" transform="translate(-25.95 -88.62)"/><path class="cls-7" d="M88.8,124.3l0,.06h-.08a2.59,2.59,0,0,1-2.2-1.3l0,0v0h.06a2.6,2.6,0,0,1,2.21,1.28Z" transform="translate(-25.95 -88.62)"/><path class="cls-7" d="M84.92,122.44a2.53,2.53,0,0,0,1.56.57h0v0l0,0a.22.22,0,0,0,0-.08l0,0,0-.06,0,0,0,0h0l0,0h0l0-.05,0,0-.06-.06h0l0,0-.09-.08,0,0h0l0,0h0l0,0h0a.91.91,0,0,0-.16-.11v0h0l-.06,0,0,0-.17-.09h0" transform="translate(-25.95 -88.62)"/><path class="cls-7" d="M75,130.46a.2.2,0,0,1,0,.07,2.44,2.44,0,0,0,0,.27,2.48,2.48,0,0,0,.09.68s0,0,0,0v0h0v.06h0s0,0,0,0l0,0a.76.76,0,0,0,0,.11,1,1,0,0,0,.07.15,1.09,1.09,0,0,0,.08.15h0" transform="translate(-25.95 -88.62)"/><path class="cls-7" d="M75.34,132.15h0a1.66,1.66,0,0,0,.32,0h0a2.62,2.62,0,0,0,1.72-1h0l0,0c0-.07.1-.15.15-.25h0c0-.07.07-.14.1-.2h0a0,0,0,0,0,0,0,2.42,2.42,0,0,0,.21-1,2.56,2.56,0,0,0-.22-1.05" transform="translate(-25.95 -88.62)"/><path class="cls-7" d="M75,130.47a1.84,1.84,0,0,0,0,.33,2.48,2.48,0,0,0,.1.68s0,0,0,0v0h0v.06h0s0,0,0,0,0,0,0,0a.49.49,0,0,0,0,.11,1,1,0,0,0,.07.15,1.09,1.09,0,0,0,.08.15h0" transform="translate(-25.95 -88.62)"/><path class="cls-7" d="M75,130.46a.2.2,0,0,1,0,.07,2.44,2.44,0,0,0,0,.27,2.48,2.48,0,0,0,.09.68s0,0,0,0v0h0v.06h0s0,0,0,0l0,0a.76.76,0,0,0,0,.11,1,1,0,0,0,.07.15,1.09,1.09,0,0,0,.08.15h0" transform="translate(-25.95 -88.62)"/><path class="cls-7" d="M75.33,132.15h0a2.61,2.61,0,0,0,2.21,1.25h0l.07-.12a2.68,2.68,0,0,0,.27-1.17,2.58,2.58,0,0,0-.33-1.27h0s0,0,0,0h0a2.6,2.6,0,0,0-1.41-1.15" transform="translate(-25.95 -88.62)"/><path class="cls-7" d="M75.33,132.15h0a2.59,2.59,0,0,0,2.21,1.25h0a2.6,2.6,0,0,0-1.89-1.27h0l-.34,0h0" transform="translate(-25.95 -88.62)"/><path class="cls-7" d="M75.33,132.15h0l0,0" transform="translate(-25.95 -88.62)"/><path class="cls-7" d="M75,130.46a.2.2,0,0,1,0,.07,2.44,2.44,0,0,0,0,.27,2.48,2.48,0,0,0,.09.68s0,0,0,0v0h0v.06h0s0,0,0,0l0,0a.76.76,0,0,0,0,.11,1,1,0,0,0,.07.15,1.09,1.09,0,0,0,.08.15h0" transform="translate(-25.95 -88.62)"/><path class="cls-7" d="M75.33,132.15h0v0h0l.06-.12h0a2.63,2.63,0,0,0,.26-1.12,2.54,2.54,0,0,0-.12-.78" transform="translate(-25.95 -88.62)"/></g></svg>